<!-- SPDX-License-Identifier: CC-BY-SA-3.0 -->
<!-- 署名：GNOME Builder contributors；由 AdwCode 从字体轮廓生成，来源见 来源.json。 -->
<svg xmlns="http://www.w3.org/2000/svg" viewBox="0 0 16 16" width="16" height="16"><path fill="currentColor" d="M1.05998 14.001537L1.05998 13.998463Q1.06 13.999247 1.060021 13.999984Q1.06 14.00076 1.05998 14.001537ZM1.060021 13.999984Q1.070443 13.600895 1.335884 13.335884Q1.6009 13.070443 2 13.06L2.001537 13.05998Q2.662381 13.060005 3.220703 13.06Q3.265448 13.057309 3.278912 13.014552L6.089053 1.773988Q6.29613 1.101311 7.001817 1.06L8.998183 1.06Q9.70387 1.101311 9.910947 1.773988L12.721088 13.014552Q12.734552 13.057309 12.779297 13.06Q13.336475 13.060005 13.998463 13.05998L14 13.06Q14.3991 13.070443 14.664116 13.335884Q14.929557 13.600895 14.939979 13.999984Q14.929557 14.399113 14.664116 14.664116Q14.3991 14.929557 14 14.94L13.998463 14.94002Q8 14.93999 2.001537 14.94002L2 14.94Q1.6009 14.929557 1.335884 14.664116Q1.070443 14.399113 1.060021 13.999984ZM5.221307 12.985438Q5.214871 13.0137 5.232217 13.036921Q5.250534 13.059384 5.279513 13.06L10.720487 13.06Q10.749466 13.059384 10.767783 13.036921Q10.785129 13.0137 10.778693 12.985438L10.278346 10.985438Q10.264878 10.94269 10.22014 10.94L5.77986 10.94Q5.735122 10.94269 5.721654 10.985438L5.221307 12.985438ZM6.088566 1.775556Q6.088809 1.774772 6.089053 1.773988L6.089459 1.772364L6.088566 1.775556ZM6.722349 6.985438Q6.715913 7.0137 6.73326 7.036921Q6.751577 7.059384 6.780555 7.06L9.219445 7.06Q9.248423 7.059384 9.26674 7.036921Q9.284087 7.0137 9.277651 6.985438L8.276956 2.985438Q8.263489 2.94269 8.21875 2.94L7.78125 2.94Q7.736511 2.94269 7.723044 2.985438L6.722349 6.985438ZM7 1.06L7.001817 1.06Q7.002706 1.059946 7.003597 1.059892L7 1.06ZM8.996403 1.059892Q8.997294 1.059946 8.998183 1.06L9 1.06L8.996403 1.059892ZM9.910541 1.772364L9.910947 1.773988Q9.911191 1.774772 9.911434 1.775556L9.910541 1.772364ZM14.939979 13.999984Q14.94 13.999247 14.94002 13.998463L14.94002 14.001537Q14.94 14.00076 14.939979 13.999984Z"/></svg>
