<!-- SPDX-License-Identifier: LGPL-3.0-only -->
<!-- 署名：GNOME Project；由 AdwCode 从字体轮廓生成，来源见 来源.json。 -->
<svg xmlns="http://www.w3.org/2000/svg" viewBox="0 0 16 16" width="16" height="16"><path fill="currentColor" d="M0.56444 10.413235L0.566903 10.42081Q0.56631 10.41884 0.565726 10.416873Q0.565081 10.415071 0.56444 10.413235ZM0.56444 5.586765L0.566992 5.578892Q0.56638 5.58094 0.565776 5.582987Q0.565106 5.584858 0.56444 5.586765ZM0.565726 10.416873Q0.465307 10.081703 0.613258 9.791207Q0.759668 9.499737 1.092048 9.381751L1.315071 9.312536Q1.318629 9.311432 1.322139 9.310181Q1.716148 9.169275 1.956255 8.807352Q2.192502 8.449767 2.187812 8.035156L2.187795 8.032658Q2.187816 7.999267 2.187812 7.964844Q2.187812 7.961644 2.187698 7.958446Q2.172899 7.548799 1.946834 7.196627Q1.713676 6.8348 1.318085 6.693672Q1.316415 6.693079 1.314733 6.692518Q1.205346 6.656048 1.095158 6.619357Q0.760201 6.501907 0.613156 6.210059Q0.465293 5.920625 0.565776 5.582987Q0.681268 5.253774 0.971887 5.106654Q1.261858 4.957818 1.597168 5.058054L1.827636 5.132273Q1.829725 5.132946 1.83183 5.133567Q2.23547 5.252232 2.637494 5.096476Q3.030421 4.943406 3.277349 4.611186Q3.279117 4.608804 3.280805 4.606366L3.315098 4.556834Q3.555486 4.220999 3.581044 3.799848Q3.606445 3.367485 3.36643 3.02209Q3.366119 3.021643 3.365804 3.021197Q3.295965 2.922254 3.226125 2.823331L3.225179 2.821978Q3.022939 2.530532 3.075669 2.208243Q3.126544 1.885878 3.407411 1.672395Q3.678962 1.478856 4.013446 1.529124Q4.34711 1.583655 4.550172 1.856476L4.689862 2.050488Q4.691585 2.05288 4.693385 2.055215Q4.949032 2.38596 5.366669 2.495459Q5.775401 2.601809 6.171675 2.476243Q6.173781 2.475574 6.175869 2.474854Q6.199388 2.466739 6.229139 2.45823Q6.233611 2.456952 6.237979 2.455456Q6.627256 2.321935 6.894628 1.995886Q7.167826 1.66149 7.179931 1.243265Q7.18 1.240774 7.18 1.238281L7.18 1.002391Q7.188781 0.65141 7.420736 0.420736Q7.650599 0.189606 7.99986 0.180073Q8.349311 0.189512 8.579264 0.420736Q8.811219 0.65141 8.82 1.002391L8.82 1.238281Q8.82 1.240753 8.820068 1.243225Q8.832161 1.664401 9.105372 1.998816Q9.372742 2.324843 9.761933 2.455426L9.763336 2.455901Q9.791392 2.465568 9.813986 2.474916Q9.821579 2.478058 9.829426 2.480495Q10.225083 2.603095 10.633109 2.49747Q11.051283 2.388383 11.307071 2.054621Q11.307921 2.053509 11.308753 2.052384L11.453285 1.857072Q11.453606 1.856639 11.453925 1.856203Q11.650904 1.585074 11.988844 1.525516Q12.32145 1.479308 12.596672 1.672542Q12.876751 1.88612 12.926683 2.209149Q12.978563 2.532797 12.778788 2.821868L12.635554 3.019299Q12.634237 3.021114 12.632966 3.022962Q12.396293 3.367823 12.42039 3.799316Q12.444717 4.220722 12.684862 4.556775L12.719195 4.606366Q12.720911 4.608844 12.722709 4.611264Q12.96997 4.943553 13.364738 5.096585Q13.768334 5.252184 14.172043 5.133577Q14.174164 5.132951 14.17627 5.132273Q14.289782 5.095727 14.403294 5.059125Q14.74011 4.957083 15.030354 5.106552Q15.320199 5.253779 15.438165 5.583151Q15.538155 5.920413 15.389485 6.209665Q15.241807 6.500921 14.910882 6.618594L14.683105 6.691946Q14.680728 6.692712 14.678373 6.693543Q14.281467 6.83414 14.042288 7.19459Q13.807128 7.550479 13.812188 7.964844L13.812208 7.967527Q13.812183 8.001341 13.812188 8.035156Q13.812188 8.038293 13.812297 8.041428Q13.826789 8.450774 14.050594 8.804357Q14.282023 9.168559 14.677861 9.310181Q14.680469 9.311111 14.683105 9.31196L14.911364 9.385467Q15.241933 9.500815 15.38944 9.792199Q15.538123 10.081861 15.438217 10.416702Q15.32021 10.746199 15.030135 10.894049Q14.740667 11.04358 14.405243 10.945345L14.17411 10.868299Q14.171156 10.867315 14.16817 10.866433Q13.76453 10.747768 13.362506 10.903524Q12.969579 11.056594 12.722651 11.388814Q12.719474 11.393093 12.716535 11.397587Q12.707106 11.412008 12.693306 11.427611Q12.687164 11.434563 12.681854 11.441971Q12.440857 11.778485 12.416484 12.200684Q12.392387 12.632177 12.62906 12.977038Q12.630507 12.979141 12.632013 12.981203L12.778936 13.182255Q12.97799 13.470678 12.925314 13.792202Q12.874464 14.113746 12.597041 14.327152Q12.309131 14.525168 11.988296 14.474023Q11.666275 14.424519 11.452805 14.146158Q11.381549 14.047942 11.309757 13.948986Q11.308422 13.947146 11.307041 13.94534Q11.051161 13.611641 10.63367 13.502549Q10.226003 13.396842 9.832936 13.519629Q9.829855 13.520594 9.826811 13.521668Q9.795073 13.532862 9.763336 13.544099Q9.373228 13.674568 9.105372 14.001184Q8.832161 14.335599 8.820068 14.756775Q8.82 14.759247 8.82 14.761719L8.82 14.997609Q8.811219 15.34859 8.579264 15.579264Q8.349311 15.810488 7.99986 15.819927Q7.650599 15.810394 7.420736 15.579264Q7.188781 15.34859 7.18 14.997609L7.18 14.761719Q7.18 14.759338 7.179937 14.756958Q7.16828 14.335906 6.896355 14.001504Q6.629405 13.674477 6.236281 13.543972Q6.234834 13.543493 6.233378 13.543038Q6.20281 13.533484 6.172244 13.523939L6.170881 13.523507Q5.778037 13.397999 5.370515 13.502965Q4.952825 13.611402 4.696842 13.94537Q4.695473 13.947161 4.694149 13.948986L4.551101 14.146158Q4.337631 14.424519 4.01561 14.474023Q3.694509 14.525214 3.406377 14.326809Q3.127027 14.113595 3.077204 13.792685Q3.025422 13.471081 3.224787 13.182481L3.369318 12.979356Q3.370138 12.978203 3.37094 12.977038Q3.607613 12.632177 3.583516 12.200684Q3.559143 11.778485 3.318146 11.441971Q3.316387 11.439518 3.314546 11.437126Q3.295948 11.412937 3.277349 11.388814Q3.030421 11.056594 2.637494 10.903524Q2.23547 10.747768 1.83183 10.866433Q1.829725 10.867054 1.827636 10.867727Q1.714145 10.904266 1.600655 10.940862Q1.263329 11.042959 0.971887 10.893346Q0.681206 10.746195 0.565726 10.416873ZM1.088508 9.382849L1.092048 9.381751Q1.093669 9.381171 1.095295 9.380594L1.088508 9.382849ZM3.275483 11.386345L3.277349 11.388814Q3.276416 11.387547 3.275483 11.386345ZM3.314153 4.558149Q3.314626 4.557492 3.315098 4.556834L3.315962 4.555585L3.314153 4.558149ZM3.403018 14.324509L3.409817 14.329439Q3.408093 14.328126 3.406377 14.326809Q3.404697 14.32567 3.403018 14.324509ZM3.405241 1.673932Q3.406326 1.673158 3.407411 1.672395Q3.408559 1.671518 3.40971 1.670642L3.405241 1.673932ZM3.841359 7.968075Q3.800821 8.606706 4.012008 9.273139Q4.019142 9.295581 4.03172 9.315364Q4.032761 9.318704 4.033955 9.322881Q4.03518 9.327168 4.036604 9.331358Q4.46209 10.582199 5.505484 11.362902Q5.523387 11.376276 5.543993 11.38488Q5.546798 11.386878 5.549678 11.388768Q5.571882 11.40334 5.594863 11.42273Q5.600883 11.427809 5.607324 11.432343Q6.639106 12.158245 7.997167 12.179978Q7.999908 12.180021 8.002649 12.179981Q9.38621 12.159238 10.437124 11.403947Q10.448976 11.395418 10.459245 11.385156Q10.480413 11.376421 10.498782 11.362632Q11.546055 10.574939 11.9753 9.299559Q11.97635 9.29644 11.977284 9.293273Q11.981748 9.281295 11.984502 9.268632Q12.117386 8.656108 12.156694 8.032316Q12.197127 7.389585 11.981035 6.721751Q11.978804 6.710872 11.975342 6.700565Q11.5449 5.418603 10.48996 4.636615Q10.487407 4.634724 10.484789 4.632924Q10.47454 4.625878 10.46399 4.61977Q10.451777 4.606601 10.437124 4.596053Q9.38621 3.840762 8.002649 3.820019Q7.999907 3.819979 7.997165 3.820022Q6.640308 3.841746 5.603759 4.567416Q5.590923 4.576407 5.579752 4.587565Q5.567326 4.599985 5.551799 4.609861Q5.548654 4.611866 5.545819 4.61384Q5.528711 4.621719 5.513567 4.632991Q4.466283 5.413547 4.036774 6.664239Q4.034579 6.670634 4.032859 6.677225Q4.031444 6.682641 4.030183 6.687078L4.029243 6.688644Q4.01366 6.714685 4.00741 6.744382Q3.880628 7.350246 3.841359 7.968075ZM4.025576 6.701805Q4.027751 6.695644 4.030183 6.687078L4.040961 6.669113L4.025576 6.701805ZM4.02819 9.305141L4.031878 9.313709Q4.036152 9.322939 4.045371 9.334052Q4.037931 9.325129 4.03172 9.315364Q4.029769 9.309087 4.02819 9.305141ZM4.549236 1.855176L4.550172 1.856476Q4.550615 1.857067 4.551057 1.857659L4.549236 1.855176ZM4.549617 14.148204L4.552534 14.144296Q4.551818 14.145228 4.551101 14.146158L4.549617 14.148204ZM5.538024 4.619569Q5.546281 4.613332 5.55794 4.608787Q5.551782 4.611094 5.545819 4.61384Q5.541845 4.616591 5.538024 4.619569ZM5.543053 11.384206Q5.543664 11.384646 5.543993 11.38488Q5.54552 11.385521 5.548041 11.386511Q5.544184 11.384942 5.543053 11.384206ZM7.179941 14.995389L7.18 15L7.18 14.997609Q7.179969 14.9965 7.179941 14.995389ZM7.179941 1.004611Q7.179969 1.0035 7.18 1.002391L7.18 1L7.179941 1.004611ZM7.995389 15.820059L8.004611 15.820059Q8.002232 15.819998 7.99986 15.819927Q7.997627 15.820004 7.995389 15.820059ZM7.995389 0.179941Q7.997627 0.179996 7.99986 0.180073Q8.002232 0.180002 8.004611 0.179941L7.995389 0.179941ZM8.82 15L8.820059 14.995389Q8.820031 14.9965 8.82 14.997609L8.82 15ZM8.82 1.002391L8.82 1L8.820059 1.004611Q8.820031 1.0035 8.82 1.002391ZM10.449995 11.388675Q10.451442 11.387658 10.452862 11.386602Q10.456054 11.384805 10.45922 11.382537Q10.455165 11.385563 10.450949 11.388355Q10.450473 11.388507 10.449995 11.388675ZM11.451372 14.144296L11.454289 14.148204L11.452805 14.146158Q11.452088 14.145228 11.451372 14.144296ZM11.95481 9.33545Q11.970357 9.313372 11.977762 9.287731L11.984688 9.238281Q11.984688 9.24022 11.984688 9.242188Q11.984666 9.268289 11.977284 9.293273Q11.968798 9.315975 11.95481 9.33545ZM11.979798 6.717857Q11.980086 6.718743 11.980374 6.719635Q11.980735 6.720821 11.981035 6.721751Q11.980498 6.720194 11.979798 6.717857ZM11.981035 6.721751Q11.981382 6.723003 11.981671 6.723997Q11.981435 6.723264 11.981035 6.721751ZM11.985794 1.525932Q11.987319 1.525718 11.988844 1.525516Q11.99047 1.525225 11.992099 1.524938L11.985794 1.525932ZM12.593565 14.329839L12.600888 14.324509Q12.598965 14.325836 12.597041 14.327152Q12.595308 14.328505 12.593565 14.329839ZM12.594023 1.670511Q12.59535 1.671521 12.596672 1.672542Q12.598115 1.67355 12.599558 1.674564L12.594023 1.670511ZM12.684038 4.555585L12.684862 4.556775Q12.685311 4.557402 12.68576 4.558029L12.684038 4.555585ZM12.777585 13.180291Q12.778262 13.181273 12.778936 13.182255L12.78045 13.184328L12.777585 13.180291ZM12.777624 2.823557L12.780085 2.82008L12.778788 2.821868Q12.778207 2.822713 12.777624 2.823557ZM14.402197 10.944457L14.408484 10.946425L14.405243 10.945345Q14.403721 10.944903 14.402197 10.944457ZM14.908407 6.619478L14.913574 6.617727L14.910882 6.618594Q14.909646 6.619037 14.908407 6.619478ZM14.909329 9.384753Q14.910347 9.385109 14.911364 9.385467L14.913574 9.386179L14.909329 9.384753ZM15.436872 5.57875Q15.437523 5.580929 15.438165 5.583151Q15.43899 5.585438 15.439808 5.587734L15.436872 5.57875ZM15.436956 10.420967L15.439813 10.41225Q15.439019 10.41448 15.438217 10.416702Q15.437591 10.418855 15.436956 10.420967Z"/></svg>
