<!-- SPDX-License-Identifier: LGPL-3.0-only -->
<!-- 署名：GNOME Project；由 AdwCode 从字体轮廓生成，来源见 来源.json。 -->
<svg xmlns="http://www.w3.org/2000/svg" viewBox="0 0 16 16" width="16" height="16"><path fill="currentColor" d="M3.179496 9.906665Q3.182873 9.580258 3.42812 9.33036L7.424827 5.415616Q7.679301 5.180133 7.999512 5.180976Q8.31942 5.18011 8.570949 5.415305Q10.569143 7.372528 12.567337 9.329705Q12.816177 9.579939 12.819527 9.906665Q12.824704 10.23221 12.585567 10.491838Q12.336408 10.735102 12.011304 10.738473Q11.684683 10.743645 11.424526 10.505958L8.126134 7.266117Q8 7.162945 7.873866 7.266117L4.575461 10.505971Q4.315422 10.743647 3.988204 10.738473Q3.662284 10.735078 3.410373 10.491637Q3.174348 10.232177 3.179496 9.906665ZM3.406602 10.48801L3.414109 10.495745Q3.412233 10.493693 3.410373 10.491637Q3.408486 10.489842 3.406602 10.48801ZM3.426735 9.331716L3.42812 9.33036Q3.428748 9.329716 3.429378 9.329073L3.426735 9.331716ZM4.573085 10.508305L4.57775 10.503883Q4.576606 10.504929 4.575461 10.505971L4.573085 10.508305ZM7.423002 5.4173Q7.423914 5.416456 7.424827 5.415616L7.426735 5.413747L7.423002 5.4173ZM8.569358 5.413747L8.570949 5.415305Q8.571705 5.416009 8.572461 5.416714L8.569358 5.413747ZM11.422224 10.50386L11.426915 10.508305L11.424526 10.505958Q11.423374 10.504911 11.422224 10.50386ZM12.582601 10.495074L12.588896 10.488591Q12.587233 10.49022 12.585567 10.491838Q12.584089 10.493466 12.582601 10.495074Z"/></svg>
