<!-- SPDX-License-Identifier: LGPL-3.0-only -->
<!-- 署名：GNOME Project；由 AdwCode 从字体轮廓生成，来源见 来源.json。 -->
<svg xmlns="http://www.w3.org/2000/svg" viewBox="0 0 16 16" width="16" height="16"><path fill="currentColor" d="M0.059979 12.789419Q0.06001 7.499997 0.059979 2.210575L0.06 2.209Q0.083938 1.306822 0.689982 0.695995Q1.295404 0.084948 2.2 0.06L2.201637 0.059978Q7.999999 0.060011 13.798362 0.059978L13.8 0.06Q14.703948 0.084949 15.309652 0.696004Q15.915969 1.30683 15.94 2.209L15.940021 2.210581Q15.93999 7.5 15.940021 12.789419L15.94 12.791Q15.915969 13.69317 15.309652 14.303996Q14.703948 14.915051 13.8 14.94L13.798362 14.940022Q8 14.939989 2.201638 14.940022L2.2 14.94Q1.296052 14.915051 0.690348 14.303996Q0.084031 13.69317 0.06 12.791L0.059979 12.789419ZM1.94 12.791Q1.94 12.792009 1.940034 12.793018Q1.953502 13.054043 2.199689 13.059999L13.8 13.06Q14.046576 13.054043 14.059966 12.793018Q14.06 12.792009 14.06 12.791L14.06 2.209Q14.06 2.207991 14.059966 2.206982Q14.046498 1.945957 13.800311 1.940001L2.2 1.94Q1.953424 1.945957 1.940034 2.206982Q1.94 2.207991 1.94 2.209L1.94 12.791ZM3.961293 10.646637L3.962292 10.650549Q3.962072 10.649546 3.961854 10.648544Q3.961573 10.647598 3.961293 10.646637ZM3.961854 10.648544Q3.894128 10.34072 4.118357 10.118496L5.694426 8.542426Q5.729574 8.5 5.694426 8.457574L4.119137 6.882285Q3.876763 6.624624 3.995221 6.291829Q4.142216 5.971024 4.494941 5.955023Q4.721268 5.958449 4.881677 6.118529L6.879551 8.116404Q7.199393 8.5 6.879551 8.883596L4.881574 10.881574Q4.659241 11.105913 4.351393 11.03813Q4.049733 10.950235 3.961854 10.648544ZM3.994124 6.2942Q3.994671 6.293005 3.995221 6.291829Q3.995667 6.290561 3.996118 6.289291L3.994124 6.2942ZM4.118426 6.881574L4.1198 6.882994Q4.119469 6.882639 4.119137 6.882285L4.118426 6.881574ZM4.349451 11.037708L4.353363 11.038707Q4.352377 11.038419 4.351393 11.03813Q4.350423 11.037922 4.349451 11.037708ZM4.493168 5.954994Q4.494055 5.955006 4.494941 5.955023Q4.495868 5.954978 4.496796 5.954935L4.493168 5.954994ZM6.877779 8.885743L6.881574 8.881574L6.879551 8.883596Q6.878667 8.884669 6.877779 8.885743ZM6.877779 8.114257Q6.878667 8.115331 6.879551 8.116404L6.881574 8.118426L6.877779 8.114257ZM8.06 10.94L8.06 10.06L10.94 10.06L10.94 10.94L8.06 10.94Z"/></svg>
