<!-- SPDX-License-Identifier: CC-BY-SA-3.0 -->
<!-- 署名：GNOME Builder contributors；由 AdwCode 从字体轮廓生成，来源见 sources.json。 -->
<svg xmlns="http://www.w3.org/2000/svg" viewBox="0 0 16 16" width="16" height="16"><path fill="currentColor" d="M7.9375 1.125Q9.359375 1.125 10.609375 1.65625Q11.859375 2.1875 12.8046875 3.1328125Q13.75 4.078125 14.28125 5.328125Q14.8125 6.578125 14.8125 8.0Q14.8125 9.421875 14.28125 10.671875Q13.75 11.921875 12.8046875 12.8671875Q11.859375 13.8125 10.609375 14.34375Q9.359375 14.875 7.9375 14.875Q6.53125 14.875 5.28125 14.34375Q4.015625 13.8125 3.078125 12.859375Q2.125 11.921875 1.59375 10.671875Q1.0625 9.421875 1.0625 8.0Q1.0625 6.578125 1.59375 5.328125Q2.125 4.078125 3.078125 3.140625Q4.015625 2.1875 5.28125 1.65625Q6.53125 1.125 7.9375 1.125ZM7.9375 2.875Q6.875 2.875 5.953125 3.28125Q5.03125 3.6875 4.328125 4.375Q3.625 5.078125 3.21875 6.0Q2.8125 6.921875 2.8125 8.0Q2.8125 9.078125 3.21875 10.0Q3.625 10.921875 4.328125 11.625Q5.03125 12.3125 5.953125 12.71875Q6.875 13.125 7.9375 13.125Q9.015625 13.125 9.9375 12.71875Q10.859375 12.3125 11.5625 11.625Q12.265625 10.921875 12.671875 10.0Q13.0625 9.078125 13.0625 8.0Q13.0625 6.921875 12.671875 6.0Q12.265625 5.078125 11.5625 4.375Q10.859375 3.6875 9.9375 3.28125Q9.015625 2.875 7.9375 2.875ZM8.0625 11.875V8.125H11.8125Q11.78125 9.125 11.296875 9.953125Q10.765625 10.828125 9.890625 11.359375Q9.0625 11.84375 8.0625 11.875ZM7.8125 7.875H4.0625Q4.09375 6.875 4.578125 6.046875Q5.109375 5.171875 5.984375 4.640625Q6.828125 4.15625 7.8125 4.125Z"/></svg>
